<?xml version="1.0" standalone="no"?>
<!DOCTYPE svg PUBLIC "-//W3C//DTD SVG 20010904//EN"
 "http://www.w3.org/TR/2001/REC-SVG-20010904/DTD/svg10.dtd">
<svg version="1.0" xmlns="http://www.w3.org/2000/svg"
 width="980.000000pt" height="980.000000pt" viewBox="0 0 980.000000 980.000000"
 preserveAspectRatio="xMidYMid meet">
<metadata>
Created by potrace 1.11, written by Peter Selinger 2001-2013
</metadata>
<g transform="translate(0.000000,980.000000) scale(0.100000,-0.100000)"
fill="#000000" stroke="none">
<path d="M4267 9783 c-1 0 -56 -4 -122 -8 -187 -10 -227 -13 -270 -19 -22 -3
-69 -8 -105 -11 -70 -6 -95 -10 -150 -20 -45 -8 -75 -12 -130 -20 -25 -4 -76
-13 -115 -22 -38 -8 -83 -17 -100 -20 -16 -2 -64 -13 -105 -24 -41 -11 -83
-22 -93 -24 -38 -9 -194 -57 -232 -72 -22 -8 -47 -16 -55 -18 -18 -4 -161 -61
-210 -83 -19 -9 -37 -17 -40 -17 -6 -2 -149 -72 -170 -85 -8 -4 -49 -27 -90
-51 -124 -71 -279 -179 -385 -268 -68 -58 -264 -260 -310 -321 -27 -36 -55
-71 -61 -77 -7 -7 -22 -29 -35 -50 -13 -21 -26 -40 -29 -43 -10 -9 -37 -55
-38 -64 0 -5 -4 -12 -10 -15 -8 -5 -85 -138 -88 -151 -1 -6 -50 -107 -63 -130
-21 -36 -94 -227 -105 -275 -2 -5 -6 -17 -9 -25 -15 -38 -70 -248 -81 -310
-15 -90 -25 -149 -32 -195 -3 -22 -8 -51 -10 -64 -19 -126 -26 -622 -10 -761
17 -154 28 -237 46 -335 10 -57 19 -120 26 -185 4 -42 6 -62 19 -150 3 -19 7
-55 10 -80 3 -25 7 -56 10 -70 2 -14 6 -52 9 -85 3 -33 10 -89 16 -125 9 -61
23 -180 23 -207 0 -7 3 -13 6 -13 3 0 6 -15 7 -32 0 -18 4 -60 8 -93 4 -33 9
-73 11 -90 1 -16 6 -48 9 -70 3 -22 8 -59 11 -82 7 -58 16 -135 30 -243 3 -19
7 -60 11 -90 3 -30 7 -67 10 -82 11 -71 13 -87 20 -148 4 -36 8 -74 9 -85 1
-11 14 -26 28 -33 26 -12 38 -16 96 -28 13 -3 32 -9 42 -14 10 -6 24 -10 32
-10 8 0 32 -7 52 -16 l38 -16 -78 -44 c-43 -24 -100 -54 -126 -67 -33 -15 -47
-27 -44 -37 2 -8 7 -41 10 -73 4 -32 8 -67 10 -78 2 -12 7 -46 11 -77 5 -51 4
-58 -15 -67 -71 -34 -198 -101 -208 -111 -8 -8 6 -14 55 -24 76 -16 69 -14
103 -24 14 -4 32 -8 40 -10 37 -6 59 -19 61 -34 0 -9 2 -28 3 -42 1 -14 6 -43
10 -65 7 -41 10 -64 19 -145 3 -25 7 -58 10 -75 7 -41 18 -135 21 -165 1 -14
5 -43 8 -65 4 -22 9 -60 12 -85 2 -25 7 -65 11 -90 3 -25 7 -63 9 -85 2 -22 6
-53 8 -70 3 -16 8 -57 12 -90 3 -33 8 -73 11 -90 4 -28 9 -75 18 -155 2 -19 8
-62 12 -95 4 -33 8 -72 9 -87 0 -16 2 -28 5 -28 3 0 5 -17 6 -38 1 -20 4 -58
8 -84 3 -27 8 -67 11 -90 8 -75 16 -142 20 -178 3 -19 8 -62 11 -95 9 -78 12
-100 14 -100 0 0 3 -25 5 -55 3 -30 7 -71 10 -90 3 -19 8 -55 11 -80 6 -65 14
-128 21 -180 3 -25 7 -61 9 -80 9 -76 12 -108 23 -190 12 -98 21 -172 26 -215
3 -32 13 -118 20 -175 3 -19 7 -55 10 -80 3 -25 7 -58 10 -75 2 -16 5 -47 6
-67 2 -40 16 -49 94 -62 46 -8 87 -16 115 -22 14 -3 36 -8 50 -10 14 -3 36 -7
50 -10 14 -3 39 -8 55 -11 17 -2 37 -7 45 -10 19 -8 46 -12 90 -15 19 -2 37
-6 40 -10 3 -4 21 -9 40 -12 19 -3 46 -7 60 -11 161 -35 135 -34 1637 -29 802
2 1975 6 2606 8 631 2 1150 5 1151 7 2 2 7 24 10 49 4 25 13 88 22 140 8 52
17 115 19 140 3 25 7 56 11 70 3 14 8 38 10 53 8 68 15 114 19 137 3 14 7 39
9 55 14 94 18 123 23 150 6 39 9 59 17 125 4 30 11 75 16 100 5 25 11 61 14
80 2 19 5 35 6 35 1 0 3 18 5 40 2 22 6 58 10 80 4 22 8 51 10 65 2 14 4 25 5
25 1 0 3 16 5 35 1 19 6 53 10 75 8 45 12 74 19 125 3 19 7 49 10 65 2 17 8
53 11 80 8 60 13 90 15 90 1 0 3 14 5 30 11 85 16 122 20 140 3 11 7 38 10 60
3 22 13 85 21 140 8 55 17 116 19 135 2 19 4 35 5 35 1 0 4 14 6 30 2 17 9 62
15 100 6 39 13 84 14 100 2 17 4 30 5 30 1 0 3 9 4 20 2 11 6 43 10 70 5 28
10 64 11 80 2 17 7 46 10 65 9 47 15 88 20 130 2 19 6 44 9 56 2 12 7 45 11
75 3 30 8 61 10 69 2 8 7 35 10 60 3 25 10 70 15 100 5 30 12 78 15 105 4 28
8 57 10 65 2 8 7 38 10 65 4 28 8 61 11 75 2 14 7 41 9 60 3 19 10 64 16 100
5 36 12 79 14 95 2 17 6 41 9 55 2 14 7 45 10 70 3 25 8 59 11 75 20 128 29
190 29 213 1 12 5 22 9 22 5 0 6 3 4 8 -3 4 -1 32 4 62 5 30 11 73 14 95 3 22
10 65 15 95 5 30 12 75 15 100 3 25 7 56 10 70 3 13 7 42 10 65 3 22 8 54 12
70 3 17 7 41 8 55 3 24 11 84 21 143 9 55 13 84 24 162 7 44 13 87 15 95 2 13
13 88 21 145 1 11 5 34 7 50 15 89 20 123 23 150 1 17 3 31 4 33 2 1 4 11 5
22 1 11 3 21 5 23 1 1 3 18 4 37 2 19 6 51 9 70 23 121 31 253 30 520 0 201
-5 316 -18 437 -12 112 -17 156 -21 176 -2 12 -7 42 -10 67 -3 25 -7 53 -10
62 -9 33 -16 64 -28 143 -4 22 -10 47 -13 55 -3 8 -7 24 -8 35 -2 11 -11 47
-20 80 -9 33 -20 74 -25 90 -12 46 -41 138 -50 160 -5 11 -18 47 -30 80 -52
147 -209 473 -232 483 -5 2 -8 8 -8 13 0 16 -148 231 -206 299 -80 94 -126
144 -194 210 -68 66 -99 93 -184 162 -11 10 -26 22 -32 27 -6 4 -35 26 -65 47
-30 21 -56 41 -59 44 -3 3 -16 11 -30 19 -14 8 -52 31 -85 51 -66 41 -250 140
-262 141 -5 1 -39 16 -78 34 -38 17 -83 36 -100 40 -38 11 -35 9 -70 24 -16 7
-34 14 -40 15 -5 1 -16 5 -22 9 -7 5 -13 6 -13 2 0 -3 -12 1 -28 9 -15 8 -41
16 -57 19 -17 3 -51 13 -77 21 -27 8 -48 13 -48 10 0 -3 -8 -1 -17 5 -23 12
-225 54 -318 66 -16 2 -43 6 -60 9 -63 10 -112 16 -159 21 -27 2 -72 11 -100
19 -49 14 -220 54 -261 61 -11 2 -31 6 -45 9 -14 3 -38 8 -55 11 -41 6 -95 15
-125 21 -26 5 -48 8 -140 19 -30 3 -68 8 -84 11 -17 3 -59 7 -95 10 -36 2 -86
6 -111 9 -139 13 -793 28 -803 18z"/>
</g>
</svg>
